<svg xmlns="http://www.w3.org/2000/svg" width="1000" height="1000" viewBox="0 0 1000 1000" version="1.1"><path d="M 664.513 5.500 C 666.109 7.700, 669.655 12.200, 672.391 15.500 C 685.313 31.081, 700.452 58.564, 707.372 79 C 715.625 103.377, 718.976 123.741, 719.632 153.500 C 720.191 178.849, 719.876 180.299, 713.704 180.812 C 711.641 180.983, 708.544 180.420, 706.821 179.561 C 703.852 178.079, 703.768 178.089, 705.226 179.749 C 706.071 180.712, 707.066 182.493, 707.435 183.706 C 708.380 186.808, 713.448 190.806, 717.368 191.541 C 719.418 191.926, 722.083 191.574, 724.374 190.617 C 730.198 188.184, 731.001 185.047, 730.991 164.782 C 730.964 109.635, 715.482 62.375, 684.279 22.183 C 675.542 10.930, 668.633 4, 666.149 4 C 665.187 4, 663.772 3.438, 663.005 2.750 C 662.238 2.063, 662.917 3.300, 664.513 5.500 M 656 9.491 C 656 10.809, 659.403 16.558, 663.988 22.984 C 666.637 26.696, 670.719 32.943, 673.059 36.866 C 675.399 40.790, 677.502 44, 677.731 44 C 678.640 44, 667.544 24.167, 662.777 17.271 C 658.015 10.384, 656 8.070, 656 9.491 M 608 25.699 C 631.813 45.580, 648.901 70.559, 659.412 100.852 C 664.813 116.418, 667.004 128.673, 666.976 143.157 C 666.949 157.070, 666.032 162.413, 663.180 165.264 C 661.454 166.990, 660.790 167.086, 657.671 166.057 C 655.721 165.413, 653.012 164.011, 651.652 162.941 L 649.178 160.995 651.554 165.920 C 654.557 172.145, 659.624 176.091, 665.459 176.748 C 669.392 177.192, 670.247 176.907, 672.871 174.283 C 677.454 169.700, 678.299 164.764, 677.711 146 C 677.145 127.944, 675.666 120.814, 668.434 101.278 C 656.579 69.253, 632.861 38.473, 610.212 25.721 L 603.500 21.942 608 25.699 M 601.569 28.500 C 602.425 30.700, 606.530 36.550, 610.690 41.500 C 614.851 46.450, 620.785 54.373, 623.877 59.107 C 626.970 63.840, 630.059 68.565, 630.741 69.607 C 631.424 70.648, 630.983 69.250, 629.762 66.500 C 625.081 55.961, 615.492 42.067, 603.536 28.500 L 600.011 24.500 601.569 28.500 M 287 76.410 C 287 76.770, 287.623 78.556, 288.385 80.380 C 290.027 84.310, 293.698 86.729, 304.500 91 C 313.485 94.552, 323.349 98.776, 333 103.203 C 340.439 106.616, 388.355 127.309, 416.500 139.264 C 426.950 143.702, 436.738 148.189, 438.250 149.235 C 441.360 151.385, 441.504 151.203, 439.750 147.341 C 437.975 143.432, 431.736 137.526, 427.825 136.051 C 420.655 133.349, 413.667 130.409, 409.669 128.413 C 408.112 127.636, 405.974 127, 404.919 127 C 403.864 127, 403 126.559, 403 126.019 C 403 125.480, 401.762 124.737, 400.250 124.370 C 398.738 124.002, 396.612 123.094, 395.527 122.351 C 394.443 121.608, 392.585 121, 391.400 121 C 390.215 121, 388.709 120.354, 388.053 119.564 C 387.398 118.775, 385.456 117.820, 383.738 117.442 C 382.019 117.065, 379.993 116.136, 379.235 115.378 C 378.477 114.620, 377.102 113.986, 376.179 113.968 C 375.255 113.951, 373.626 113.276, 372.559 112.468 C 371.491 111.661, 369.634 111, 368.431 111 C 367.229 111, 365.685 110.325, 365 109.500 C 364.315 108.675, 363.023 107.986, 362.128 107.968 C 361.232 107.951, 359.626 107.276, 358.559 106.468 C 357.491 105.661, 355.579 105, 354.309 105 C 353.039 105, 352 104.567, 352 104.039 C 352 103.510, 350.219 102.598, 348.042 102.011 C 345.865 101.425, 343.814 100.508, 343.483 99.973 C 343.153 99.438, 341.967 99, 340.849 99 C 339.730 99, 337.671 98.100, 336.273 97 C 334.874 95.900, 332.735 95, 331.518 95 C 330.301 95, 328.268 94.100, 327 93 C 325.732 91.900, 324.194 91, 323.582 91 C 322.971 91, 320.791 90.100, 318.739 89 C 316.686 87.900, 314.161 87, 313.126 87 C 312.091 87, 310.685 86.325, 310 85.500 C 309.315 84.675, 307.937 84, 306.937 84 C 305.936 84, 304.867 83.594, 304.560 83.098 C 304.254 82.602, 300.740 81.208, 296.751 80.001 C 292.763 78.794, 288.938 77.345, 288.250 76.781 C 287.563 76.217, 287 76.050, 287 76.410 M 440.339 90.740 C 443.862 96.440, 456.232 107.101, 457.663 105.671 C 458.479 104.854, 446.681 93.399, 443.140 91.570 C 441.292 90.616, 440.032 90.242, 440.339 90.740 M 532.882 106.779 C 533.472 107.882, 535.209 109.845, 536.741 111.142 C 542.722 116.203, 549.234 128.161, 550.552 136.500 C 550.987 139.250, 551.273 141.813, 551.189 142.197 C 550.702 144.408, 553.181 158.311, 554.589 161.263 C 555.506 163.186, 557.986 165.826, 560.101 167.130 C 562.216 168.433, 563.958 169.838, 563.973 170.250 C 563.988 170.662, 564.810 171, 565.800 171 C 566.790 171, 568.249 171.563, 569.042 172.250 C 569.835 172.938, 569.279 172.150, 567.806 170.500 C 564.119 166.371, 563.292 163.743, 562.008 152.070 C 560.768 140.807, 559.539 136.667, 554.783 127.745 C 551.276 121.165, 540.571 109.653, 535.154 106.637 C 531.837 104.790, 531.818 104.791, 532.882 106.779 M 289.171 123.706 C 290.175 124.915, 290.534 130.543, 290.638 146.692 C 290.827 176.048, 292.401 189.967, 298.071 212.399 C 306.662 246.385, 325.550 281.571, 350.661 310.364 C 356.846 317.456, 357.663 321, 353.112 321 C 350.211 321, 349.396 320.203, 327.544 296 C 324.293 292.399, 310 273.345, 310 272.612 C 310 272.107, 303.038 261.694, 302.236 261 C 301.020 259.947, 310.489 276.785, 314.326 282.500 C 324.620 297.831, 332.723 307.764, 346.754 322.250 C 354.492 330.239, 355.560 331, 359.043 331 C 363.731 331, 366 328.907, 366 324.584 C 366 321.946, 364.147 318.999, 356.454 309.405 C 342.452 291.942, 333.784 278.490, 324.942 260.500 C 313.780 237.791, 307.877 218.874, 304.035 193.500 C 302.403 182.722, 301.068 157.141, 301.700 148.777 C 302.788 134.396, 300.277 128.113, 291.805 124.020 C 288.571 122.457, 288.087 122.400, 289.171 123.706 M 488 134.676 C 486.075 135.643, 483.917 137.124, 483.205 137.967 C 480.635 141.007, 478.223 147.730, 478.499 151.080 C 478.654 152.961, 478.830 155.250, 478.890 156.166 C 479.059 158.728, 486.289 165.936, 489.659 166.902 L 492.664 167.764 490.832 164.171 C 488.472 159.542, 488.521 156.622, 491.044 151.409 C 494.394 144.488, 503.686 141.701, 511.091 145.396 C 512.767 146.232, 513.975 146.597, 513.776 146.208 C 513.576 145.819, 512.470 143.475, 511.318 141 C 510.165 138.525, 508.170 135.870, 506.885 135.100 C 503.118 132.844, 492.137 132.597, 488 134.676 M 345.602 141.164 C 345.997 141.805, 346.226 149.117, 346.110 157.415 C 345.994 165.713, 346.415 176.776, 347.047 182.001 C 351.075 215.329, 366.264 247.529, 390.979 275.133 C 394.360 278.910, 396.648 282, 396.063 282 C 395.479 282, 395 281.475, 395 280.833 C 395 280.192, 394.726 279.941, 394.390 280.277 C 393.240 281.427, 383.919 274.900, 375.500 267.049 C 365.676 257.889, 351.981 240.801, 347.610 232.250 C 346.696 230.463, 345.696 229, 345.387 229 C 344.275 229, 353.285 244.623, 359.782 253.960 C 371.597 270.941, 392.630 289.960, 399.628 289.991 C 402.485 290.003, 404.362 287.538, 403.608 284.763 C 403.270 283.518, 399.043 277.458, 394.215 271.297 C 386.813 261.850, 378.972 250.030, 374.447 241.500 C 372.122 237.117, 365.923 222.015, 364.154 216.427 C 359.202 200.779, 357 184.799, 357 164.504 C 357 149.403, 356.957 149.103, 354.381 146.041 C 351.078 142.115, 343.634 137.981, 345.602 141.164 M 450.110 186.008 C 451.425 188.361, 454.238 191.684, 456.363 193.393 C 458.488 195.102, 461.975 198.015, 464.113 199.866 C 468.598 203.751, 469.120 202.739, 465.433 197.307 C 462.341 192.750, 461.198 191.664, 453.610 186.071 L 447.721 181.730 450.110 186.008 M 528.270 197.703 C 527.044 197.940, 525.071 199.495, 523.886 201.160 C 521.777 204.123, 521.745 204.700, 522.350 228.843 C 522.689 242.404, 523.197 256.425, 523.478 260 C 525.019 279.629, 525.816 288.658, 526.524 294.500 C 526.724 296.150, 527.114 299.525, 527.389 302 C 527.916 306.733, 528.878 313.791, 529.569 318 C 529.795 319.375, 530.203 322.075, 530.475 324 C 531.365 330.287, 531.757 332.431, 532.922 337.392 C 533.555 340.083, 534.245 343.458, 534.456 344.892 C 534.667 346.326, 536.060 351.775, 537.550 357 C 539.040 362.225, 540.871 368.750, 541.618 371.500 C 542.366 374.250, 543.386 377.400, 543.887 378.500 C 546.759 384.818, 548 387.908, 548 388.748 C 548 389.268, 548.902 390.734, 550.004 392.004 C 551.106 393.275, 552.480 396.067, 553.056 398.209 C 553.633 400.351, 554.734 402.345, 555.504 402.640 C 556.274 402.935, 557.410 404.712, 558.029 406.588 C 558.648 408.465, 559.570 410, 560.078 410 C 560.585 410, 561 410.482, 561 411.071 C 561 411.661, 561.563 412.770, 562.250 413.537 C 565.040 416.648, 566 417.950, 566 418.624 C 566 419.601, 567.256 420.956, 579.650 433.350 C 592.668 446.368, 593.367 447, 594.751 447 C 595.346 447, 595.983 447.337, 596.167 447.750 C 596.568 448.654, 605.789 455, 606.700 455 C 607.054 455, 608.168 455.747, 609.177 456.661 C 610.187 457.574, 611.232 458.101, 611.500 457.833 C 611.769 457.565, 608.728 455.131, 604.744 452.425 C 600.760 449.718, 593.450 443.441, 588.500 438.475 C 566.707 416.610, 552.310 386.981, 544.024 346.944 C 537.769 316.718, 533.156 269.958, 532.721 232.363 C 532.518 214.771, 532.654 213.055, 534.405 211.113 C 537.170 208.046, 538.341 208.435, 542.963 213.956 C 551.074 223.643, 560.170 228.908, 578.500 234.524 C 613.581 245.273, 642.888 253.312, 683.898 263.434 C 700.026 267.414, 705.265 266.690, 711.824 259.575 C 720.269 250.413, 719.808 239.055, 710.802 234.398 C 707.234 232.553, 707.340 232.475, 707.821 236.591 C 708.051 238.567, 707.796 241.154, 707.254 242.341 C 706.711 243.529, 705.689 245.724, 704.981 247.220 C 702.751 251.933, 696.696 255.336, 690.692 255.249 C 685.564 255.175, 676.775 253.289, 668.176 250.418 C 665.798 249.623, 663.466 249.212, 662.995 249.503 C 662.524 249.794, 661.837 249.545, 661.468 248.948 C 661.099 248.352, 660.183 248.100, 659.431 248.388 C 658.679 248.677, 657.779 248.452, 657.431 247.888 C 657.083 247.325, 656.183 247.100, 655.431 247.388 C 654.679 247.677, 653.816 247.511, 653.512 247.020 C 653.209 246.529, 652.182 246.163, 651.230 246.206 C 650.279 246.249, 645.900 245.292, 641.500 244.079 C 637.100 242.867, 631.700 241.442, 629.500 240.913 C 627.300 240.385, 624.375 239.565, 623 239.092 C 621.625 238.619, 618.475 237.683, 616 237.013 C 613.525 236.342, 609.700 235.234, 607.500 234.550 C 602.705 233.059, 598.065 231.704, 592 230.024 C 589.525 229.338, 584.800 227.934, 581.500 226.903 C 578.200 225.872, 571.675 223.890, 567 222.499 C 557.684 219.728, 551.029 216.919, 551.011 215.750 C 551.005 215.338, 550.555 215, 550.011 215 C 548.038 215, 538 206.139, 538 204.396 C 538 203.628, 537.550 203, 537 203 C 536.450 203, 536 202.351, 536 201.557 C 536 200.211, 532.201 196.833, 531.027 197.136 C 530.737 197.211, 529.497 197.466, 528.270 197.703 M 911.973 306.351 C 914.706 309.865, 914.246 315.286, 910.911 318.865 C 908.108 321.874, 901.937 321.650, 888.500 318.050 C 838.480 304.649, 790.391 306.934, 741.937 325.013 C 727.773 330.298, 709.427 339.251, 705.357 342.865 C 704.728 343.423, 703.940 343.682, 703.607 343.440 C 703.273 343.198, 703.212 343.287, 703.472 343.639 C 703.732 343.990, 702.832 345.600, 701.472 347.216 C 698.234 351.064, 698.236 354.695, 701.477 356.171 C 703.675 357.173, 706.068 356.280, 722.727 348.242 C 746.918 336.570, 761.151 331.230, 779 327.131 C 800.098 322.285, 812.678 320.755, 831.500 320.749 C 853.449 320.742, 871.769 323.201, 896.514 329.479 C 908.537 332.528, 914.443 332.683, 918.433 330.054 C 922.323 327.489, 923.922 324.390, 923.965 319.327 C 924.004 314.691, 920.631 309.630, 916.706 308.435 C 915.493 308.066, 913.608 307.029, 912.517 306.132 C 910.636 304.584, 910.609 304.595, 911.973 306.351 M 233.996 311.250 C 233.991 315.529, 230.829 320.575, 227.654 321.372 C 226.192 321.739, 219.477 320.750, 211.809 319.038 C 163.765 308.314, 124.760 309.936, 77.732 324.613 C 53.453 332.191, 23 350.081, 23 356.767 C 23 359.914, 25.488 361.319, 29.670 360.534 C 31.701 360.153, 39.702 356.587, 47.451 352.609 C 80.959 335.409, 104.265 328.329, 141.500 324.042 C 164.059 321.444, 188.493 323.606, 224.265 331.364 C 234.651 333.616, 240.547 331.414, 243.583 324.148 C 245.391 319.821, 245.369 317.615, 243.483 313.967 C 242.076 311.246, 237.488 308, 235.050 308 C 234.472 308, 233.998 309.462, 233.996 311.250 M 297.383 333.136 C 299.156 335.668, 299.607 344.855, 298.101 347.764 C 297.606 348.719, 296.286 351.525, 295.166 354 C 287.350 371.280, 266.197 414.108, 255.815 433.672 C 253.239 438.527, 249.726 445.200, 248.008 448.500 C 246.291 451.800, 243.674 456.565, 242.193 459.089 C 240.712 461.612, 238.653 465.212, 237.617 467.089 C 234.618 472.523, 219.067 487, 216.229 487 C 215.688 487, 214.776 487.565, 214.203 488.256 C 213.379 489.248, 215.521 489.577, 224.412 489.821 L 235.664 490.131 241.082 484.232 C 248.429 476.234, 257.161 460.699, 281.416 412.475 C 293.801 387.851, 298.156 378.792, 305.033 363.341 C 309.151 354.092, 310.111 347.053, 308.010 341.527 C 306.858 338.495, 302.722 334.432, 298.633 332.313 L 295.766 330.828 297.383 333.136 M 978 337.567 C 978 337.906, 978.882 339.306, 979.960 340.676 C 981.985 343.251, 982.090 349.810, 980.168 353.742 C 979.695 354.709, 977.694 358.875, 975.720 363 C 968.950 377.147, 945.500 423.995, 942.810 428.748 C 941.331 431.361, 939.645 434.400, 939.063 435.500 C 935.843 441.587, 919.808 465, 918.860 465 C 918.387 465, 918 465.461, 918 466.023 C 918 466.586, 914.724 471.199, 910.721 476.273 C 901.188 488.357, 898.467 492.881, 891.945 507.500 C 890.413 510.936, 887.020 529.887, 887.645 531.518 C 888.445 533.601, 886.350 541.324, 883.261 547.680 C 880.874 552.592, 871.342 563, 869.230 563 C 868.688 563, 867.627 563.748, 866.872 564.663 C 863.007 569.344, 846.720 573.799, 835.500 573.243 C 817.102 572.332, 814.496 572.445, 811.707 574.272 C 810.219 575.247, 803.489 583.538, 796.751 592.698 C 790.013 601.857, 783.712 610.172, 782.750 611.176 C 781.788 612.179, 781 613.261, 781 613.579 C 781 613.898, 778.726 617.160, 775.946 620.829 C 773.166 624.498, 765.313 635.034, 758.494 644.241 C 751.676 653.449, 744.950 662.220, 743.548 663.731 C 742.147 665.243, 741 666.838, 741 667.275 C 741 667.713, 736.163 674.467, 730.252 682.285 C 724.340 690.103, 718.277 698.330, 716.779 700.566 C 715.281 702.803, 712.954 705.222, 711.608 705.942 C 708.597 707.554, 700.726 706.583, 698.464 704.321 C 696.023 701.881, 695.562 703.565, 697.678 707.189 C 702.413 715.296, 714.059 719.272, 720.753 715.068 C 723.741 713.192, 739.289 692.753, 794.592 618 C 817.226 587.406, 817.031 587.657, 819.934 585.450 C 822.237 583.700, 824.244 583.494, 839.500 583.440 C 854.246 583.387, 857.302 583.094, 862.548 581.232 C 875.016 576.806, 885.561 568.895, 891.509 559.506 C 895.746 552.816, 896.837 549.311, 898.022 538.570 C 899.601 524.268, 900.943 519.195, 905.981 508.500 C 910.211 499.519, 913.847 494.077, 926.695 477.500 C 940.589 459.574, 950.940 442.296, 967.434 409.500 C 985.084 374.407, 990.606 362.501, 991.433 357.765 C 992.345 352.543, 990.597 346.990, 986.828 343.135 C 983.694 339.930, 978 336.338, 978 337.567 M 886.893 358.240 C 887.362 359.483, 887.403 361.414, 886.985 362.532 C 885.782 365.752, 878.260 372, 875.586 372 C 874.262 372, 868.976 370.889, 863.839 369.532 C 847.726 365.273, 837.433 363.910, 821.382 363.906 C 799.053 363.902, 781.919 367.182, 761.714 375.330 C 753.583 378.608, 741.097 385.410, 737.833 388.338 C 736.917 389.160, 736.017 389.684, 735.833 389.501 C 735.650 389.318, 735.371 391.131, 735.214 393.530 C 734.984 397.024, 735.319 398.100, 736.898 398.945 C 740.290 400.761, 742.393 400.166, 754.107 394.084 C 780.894 380.173, 800.756 375.049, 828 375.019 C 843.356 375.002, 852.357 376.190, 870.330 380.607 C 882.764 383.663, 886.404 383.218, 892.456 377.905 C 900.319 371.001, 899.206 362.699, 889.771 357.884 L 886.042 355.981 886.893 358.240 M 210 360.050 C 210 363.100, 207.471 367.426, 203.959 370.381 C 200.300 373.460, 195.483 373.777, 187 371.500 C 160.714 364.442, 126.816 365.304, 101.500 373.673 C 89.364 377.686, 67.339 388.240, 63.452 391.907 C 58.982 396.123, 58.638 400.620, 62.708 401.642 C 66.088 402.490, 71.044 400.762, 87.207 393.100 C 121.048 377.058, 154.291 373.127, 188.789 381.087 C 198.743 383.384, 207.057 383.539, 210.998 381.501 C 215.799 379.018, 219.297 373.556, 219.405 368.371 C 219.487 364.455, 219.055 363.439, 216.234 360.919 C 212.405 357.497, 210 357.162, 210 360.050 M 152.676 500.345 C 142.483 503.642, 138.276 514.517, 142.842 525.762 C 144.533 529.924, 149.775 534, 153.437 534 C 154.694 534, 154.695 533.643, 153.447 531.250 C 151.598 527.705, 151.599 520.677, 153.449 517.099 C 155.770 512.610, 159.741 510.574, 166.217 510.552 C 169.441 510.542, 172.471 511.071, 173.167 511.767 C 173.845 512.445, 174.729 513, 175.130 513 C 176.061 513, 174.647 508.009, 172.944 505.282 C 170.040 500.632, 159.628 498.095, 152.676 500.345 M 829.384 500.139 C 823.648 501.429, 818.407 506.876, 817.117 512.889 C 815.769 519.178, 817.290 525.745, 820.850 529 C 823.527 531.447, 828.941 534.393, 829.582 533.751 C 829.760 533.573, 829.166 531.371, 828.262 528.857 C 826.722 524.574, 826.730 523.996, 828.387 519.656 C 830.775 513.405, 834.697 510.714, 841.422 510.714 C 844.677 510.714, 847.625 511.363, 849.272 512.442 L 851.909 514.171 851.082 511.287 C 849.850 506.989, 845.044 502.279, 840.115 500.541 C 835.276 498.833, 835.206 498.831, 829.384 500.139 M 224.968 543.362 C 224.710 543.617, 222.475 544.052, 220 544.327 C 208.801 545.574, 200.441 550.545, 193.391 560.148 C 189.212 565.841, 183.209 570.250, 176.354 572.660 C 170.240 574.809, 155.390 574.817, 149 572.674 C 143.089 570.692, 138.263 571.650, 133.649 575.719 C 131.642 577.490, 130 579.255, 130 579.641 C 130 580.027, 129.252 581.169, 128.339 582.178 C 127.425 583.188, 126.188 584.854, 125.589 585.881 C 124.531 587.696, 121.909 591.540, 112.546 605 C 110.060 608.575, 105.432 615.296, 102.263 619.936 C 99.093 624.576, 95.043 630.426, 93.262 632.936 C 91.482 635.446, 88.824 639.300, 87.357 641.500 C 85.889 643.700, 83.296 647.300, 81.594 649.500 C 79.892 651.700, 78.050 654.211, 77.500 655.081 C 76.206 657.127, 69.185 667.284, 58.546 682.500 C 53.922 689.114, 47.867 697.821, 46 700.540 C 40.882 707.996, 39.671 709, 35.798 709 C 32.072 709, 28.981 707.790, 26.217 705.250 C 22.373 701.717, 23.429 705.973, 27.607 710.854 C 32.078 716.078, 37.633 719, 43.092 719 C 46.692 719, 47.827 718.416, 51.382 714.733 C 53.647 712.386, 59.061 705.299, 63.413 698.983 C 67.765 692.667, 74.483 683, 78.342 677.500 C 82.202 672, 88.505 663, 92.350 657.500 C 96.194 652, 101.883 643.900, 104.991 639.500 C 108.100 635.100, 116.910 622.275, 124.571 611 C 132.232 599.725, 140.256 588.766, 142.402 586.646 L 146.303 582.791 152.902 583.382 C 172.522 585.136, 174.599 585.185, 179.915 584.018 C 188.829 582.062, 196.452 577.455, 202.149 570.582 C 213.105 557.365, 219.439 554.473, 237 554.669 C 254.365 554.863, 286.097 557.739, 306.026 560.925 C 333.739 565.356, 366.104 574.502, 381.471 582.244 C 399.270 591.211, 417.440 606.360, 428.931 621.813 C 431.884 625.784, 434.471 628.862, 434.681 628.652 C 435.236 628.097, 431.637 622.014, 430.750 622.006 C 430.337 622.003, 430 621.531, 430 620.958 C 430 620.385, 429.542 619.372, 428.981 618.708 C 426.867 616.200, 424.433 613.069, 422.500 610.369 C 419.777 606.564, 402.069 588.860, 399.127 587 C 397.823 586.175, 396.167 584.938, 395.449 584.250 C 394.731 583.563, 393.661 583, 393.071 583 C 392.482 583, 392 582.550, 392 582 C 392 581.450, 391.325 581, 390.500 581 C 389.675 581, 389 580.580, 389 580.067 C 389 579.554, 388.019 578.823, 386.819 578.443 C 385.619 578.062, 383.003 576.569, 381.005 575.125 C 377.872 572.861, 371.826 569.863, 364.500 566.941 C 363.400 566.502, 360.025 565.382, 357 564.452 C 353.975 563.521, 350.150 562.196, 348.500 561.506 C 346.850 560.816, 343.025 559.711, 340 559.051 C 336.975 558.391, 329.775 556.726, 324 555.351 C 310.967 552.247, 312.493 552.541, 293.500 549.481 C 289.463 548.831, 282.371 547.929, 277.500 547.447 C 274.750 547.175, 270.250 546.719, 267.500 546.433 C 264.750 546.147, 259.575 545.731, 256 545.508 C 235.883 544.253, 232.183 543.973, 228.968 543.461 C 227.025 543.151, 225.225 543.107, 224.968 543.362 M 729.749 546.578 C 729.612 546.711, 725.675 547.091, 721 547.421 C 710.242 548.182, 700.289 549.302, 693.500 550.517 C 692.400 550.713, 688.539 551.340, 684.921 551.909 C 675.278 553.425, 669.710 554.851, 643 562.644 C 639.975 563.527, 635.925 564.914, 634 565.726 C 632.075 566.539, 629.600 567.560, 628.500 567.995 C 625.110 569.336, 607.713 578.001, 603.762 580.316 C 597.460 584.008, 587.341 592.141, 579.738 599.625 C 570.562 608.657, 570.491 608.749, 557.228 628.596 C 555.873 630.623, 548.298 646.145, 547.026 649.500 C 546.609 650.600, 545.790 652.625, 545.206 654 C 542.876 659.487, 535.293 685.577, 534.453 691 C 534.240 692.375, 533.582 695.750, 532.990 698.500 C 531.216 706.750, 531.112 707.324, 530.543 712 C 530.242 714.475, 529.690 718.075, 529.318 720 C 528.945 721.925, 528.550 724.400, 528.441 725.500 C 528.331 726.600, 527.957 729.525, 527.609 732 C 526.175 742.210, 525.990 743.735, 525.542 749 C 525.285 752.025, 524.840 756.525, 524.553 759 C 524.266 761.475, 523.827 765.750, 523.578 768.500 C 523.329 771.250, 522.817 776.731, 522.440 780.680 C 521.766 787.744, 523.349 800.364, 525.171 802.450 C 525.627 802.972, 526 804.060, 526 804.866 C 526 806.423, 526.611 807.189, 532.882 813.500 C 537.715 818.364, 539.007 819.413, 541.192 820.247 C 542.122 820.602, 543.687 822.154, 544.669 823.696 C 545.650 825.238, 546.734 826.725, 547.077 827 C 550.357 829.630, 553.327 844.952, 552.438 854.656 C 552.029 859.123, 552.212 863.112, 552.925 865.272 C 554.109 868.862, 561.153 876, 563.510 876 C 564.251 876, 565.474 876.617, 566.227 877.370 C 566.981 878.124, 569.151 879.480, 571.049 880.385 C 572.947 881.289, 573.600 881.460, 572.500 880.764 C 571.400 880.069, 568.813 877.794, 566.750 875.708 L 563 871.916 563 861.507 C 563 841.433, 559.125 832.077, 546.868 822.559 C 537.018 814.910, 533.036 806.372, 533.012 792.853 C 532.997 784.804, 537.202 744.547, 539.966 726.275 C 545.198 691.676, 553.701 662.641, 564.352 643 C 584.489 605.865, 614.003 583.758, 662 569.857 C 678.693 565.022, 681.632 564.335, 696 561.909 C 710.612 559.441, 732.253 557.322, 751.679 556.456 C 763.691 555.921, 767.239 555.437, 768.679 554.134 C 769.681 553.228, 772.750 551.016, 775.500 549.218 L 780.500 545.950 755.249 546.142 C 741.361 546.248, 729.886 546.444, 729.749 546.578 M 269 650.500 C 265.879 652.284, 264.695 652.369, 265.515 650.750 C 265.863 650.063, 265.440 650.374, 264.574 651.441 C 263.708 652.509, 263 653.025, 263 652.588 C 263 652.150, 261.323 653.266, 259.272 655.066 C 253.901 659.782, 240.620 668.166, 230.361 673.318 C 218.360 679.345, 206.250 683.490, 192.763 686.187 C 178.202 689.099, 151.037 689.383, 135 686.791 C 116.526 683.804, 116.919 683.803, 117.640 686.861 C 118.484 690.439, 121.648 693.734, 125.397 694.940 C 140.767 699.883, 182.348 701.124, 201.203 697.203 C 226.633 691.914, 250.376 680.304, 270.490 663.322 C 277.981 656.998, 280.235 653.193, 278.050 650.560 C 276.448 648.630, 272.318 648.603, 269 650.500 M 937.065 653.099 C 935.726 653.634, 934.051 653.850, 933.342 653.578 C 932.633 653.306, 931.703 653.707, 931.276 654.471 C 930.849 655.234, 930.275 655.826, 930 655.787 C 929.725 655.749, 926.311 657.780, 922.413 660.301 C 903.966 672.235, 884.373 680.557, 865 684.688 C 858.227 686.132, 852.133 686.488, 835 686.442 C 812.732 686.382, 813.490 686.474, 786.755 680.575 C 784.078 679.984, 785.555 684.898, 789.043 688.188 C 792.192 691.158, 794.614 691.975, 810 695.259 C 819.106 697.202, 823.486 697.499, 843 697.500 C 867.687 697.500, 875.126 696.373, 894 689.770 C 914.274 682.678, 942.759 665.013, 946.240 657.373 C 948.277 652.903, 943.328 650.598, 937.065 653.099 M 975.290 691.927 C 960.728 702.652, 936.176 716.216, 918.500 723.302 C 890.272 734.618, 865.516 739.286, 834 739.234 C 810.242 739.194, 799.410 737.738, 761.250 729.451 C 756.208 728.356, 760.046 736.857, 765.681 739.267 C 775.315 743.387, 804.553 748.556, 827 750.107 C 870.782 753.134, 913.242 743.576, 953.500 721.630 C 966.838 714.359, 987.413 700.545, 989.384 697.537 C 992.095 693.399, 990.124 689.720, 984.347 688.135 C 981.915 687.467, 980.594 688.021, 975.290 691.927 M 655.930 701.591 C 662.559 708.449, 671.137 718.141, 674.992 723.129 C 709.660 767.986, 724.960 823.155, 720.055 885.617 C 718.548 904.814, 717.921 906.248, 711.180 905.904 C 708.606 905.772, 705.865 905.178, 705.089 904.582 C 703.585 903.428, 703.525 903.263, 707.236 910.500 C 711.568 918.949, 725.058 918.891, 728.603 910.408 C 732.274 901.621, 732.877 853.347, 729.575 832.500 C 723.224 792.399, 709.342 759.340, 685.797 728.245 C 676.297 715.699, 654.853 694.437, 648.689 691.452 C 644.021 689.191, 644.237 689.493, 655.930 701.591 M 644.042 696.316 C 643.960 697.920, 646.341 701.415, 658.374 717.353 C 665.084 726.241, 672.053 736.097, 673.861 739.256 C 675.668 742.415, 677.333 745, 677.560 745 C 678.375 745, 673.473 735.375, 669.240 728.664 C 661.612 716.568, 644.152 694.155, 644.042 696.316 M 297.135 698.515 C 293.096 700.298, 291.632 700.404, 292.595 698.845 C 293.041 698.124, 292.869 697.963, 292.138 698.415 C 291.494 698.813, 291.186 699.491, 291.452 699.923 C 291.719 700.354, 290.798 701.227, 289.405 701.861 C 287.406 702.772, 287.007 702.750, 287.510 701.758 C 287.861 701.066, 287.440 701.374, 286.574 702.441 C 285.708 703.509, 285 704.050, 285 703.643 C 285 703.237, 283.081 704.225, 280.735 705.839 C 273.889 710.548, 252.425 721.494, 240.500 726.357 C 211.064 738.360, 176.640 743.666, 144.212 741.201 C 129.724 740.099, 113.009 737.420, 97.352 733.690 L 91.204 732.225 92.060 735.209 C 93.761 741.141, 96.855 743.053, 109.675 746.098 C 176.916 762.067, 240.773 750.195, 296.500 711.362 C 304.515 705.777, 307.242 702.739, 306.832 699.848 C 306.418 696.921, 302.095 696.327, 297.135 698.515 M 627.674 751.325 C 648.263 773.098, 662.713 804.226, 667.609 837.356 C 669.580 850.693, 669.011 868.825, 666.286 879.500 L 664.500 886.500 660.213 886.411 C 657.538 886.355, 654.857 885.531, 653.081 884.218 L 650.236 882.114 652.583 886.980 C 655.734 893.511, 660.777 897.282, 666.525 897.405 C 675.357 897.594, 678.617 890.409, 679.640 868.500 C 680.617 847.577, 676.833 826.194, 668.382 804.892 C 657.799 778.212, 639.558 753.260, 625.674 746.468 L 620.847 744.107 627.674 751.325 M 619.277 751.750 C 621.609 756.178, 633.393 776, 633.693 776 C 633.911 776, 632.136 772.288, 629.749 767.750 C 625.411 759.501, 620.111 751, 619.308 751 C 619.074 751, 619.060 751.337, 619.277 751.750 M 300 763.515 C 300 766.500, 306.670 771.979, 316.500 777.070 C 322 779.919, 327.850 783.038, 329.500 784.002 C 331.150 784.967, 334.975 787.098, 338 788.739 C 341.025 790.379, 345.975 793.082, 349 794.744 C 352.025 796.406, 357.538 799.393, 361.250 801.383 C 364.962 803.372, 370.813 806.514, 374.250 808.364 C 377.688 810.214, 384.100 813.644, 388.500 815.984 C 392.900 818.325, 398.750 821.484, 401.500 823.003 C 404.250 824.523, 409.425 827.317, 413 829.213 C 426.715 836.486, 435.599 841.414, 438.105 843.138 C 440.703 844.925, 440.708 844.923, 440.238 842.465 C 439.979 841.109, 439.422 840, 439 840 C 438.578 840, 438.001 839.111, 437.717 838.025 C 437.433 836.939, 435.580 835.095, 433.600 833.927 C 431.620 832.758, 430 831.397, 430 830.901 C 430 830.406, 429.310 830, 428.467 830 C 426.727 830, 416.774 825.162, 415.978 823.930 C 415.692 823.485, 412.429 821.763, 408.728 820.103 C 405.028 818.442, 402 816.704, 402 816.239 C 402 815.775, 399.679 814.561, 396.843 813.541 C 394.007 812.521, 390.847 810.847, 389.821 809.821 C 388.795 808.795, 385.546 807.054, 382.601 805.952 C 379.656 804.850, 376.275 803.106, 375.088 802.076 C 373.900 801.046, 370.469 799.205, 367.464 797.985 C 364.459 796.766, 362 795.429, 362 795.015 C 362 794.600, 359.413 793.041, 356.250 791.550 C 346.129 786.777, 340.560 783.776, 339.517 782.532 C 338.957 781.865, 336.354 780.533, 333.732 779.570 C 331.109 778.608, 328.309 777.166, 327.509 776.366 C 326.709 775.566, 324.108 774.051, 321.729 772.998 C 319.351 771.946, 316.345 770.166, 315.049 769.043 C 313.754 767.919, 311.975 766.998, 311.097 766.995 C 310.219 766.992, 307.700 765.881, 305.500 764.526 C 300.796 761.629, 300 761.482, 300 763.515 M 453.173 790.733 C 455.003 792.236, 456.798 793.924, 457.162 794.483 C 457.527 795.042, 458.652 796.476, 459.662 797.669 C 460.673 798.862, 462.351 800.999, 463.390 802.419 C 465.162 804.838, 470 806.111, 470 804.159 C 470 802.764, 457.726 791.427, 454.295 789.653 C 449.708 787.280, 449.368 787.607, 453.173 790.733 M 293.454 812.559 C 295.389 816.269, 295.382 819.044, 293.402 832.576 C 291.443 845.960, 291.193 875.722, 292.928 889 C 295.461 908.394, 300.384 927.901, 307.085 945.094 C 312.720 959.556, 323.800 981.491, 330.510 991.473 C 335.814 999.362, 336.496 1000, 339.622 1000 C 341.480 1000, 343 999.807, 343 999.571 C 343 999.335, 341.215 996.454, 339.033 993.169 C 329.530 978.862, 316.913 950.509, 311.144 930.500 C 303.326 903.385, 300.799 868.758, 304.539 840.008 C 305.416 833.267, 305.837 825.992, 305.473 823.841 C 304.727 819.425, 301.006 814.440, 297.706 813.435 C 296.493 813.066, 294.695 812.056, 293.710 811.191 C 292.004 809.691, 291.992 809.755, 293.454 812.559 M 346.307 833.201 C 348.797 836.568, 348.824 837.240, 347.536 863.543 C 345.465 905.813, 354.271 931.509, 385.618 974.662 C 389.678 980.251, 393 985.116, 393 985.474 C 393 986.907, 383.229 979.015, 375.081 971 C 366.914 962.966, 357.267 951.085, 352.142 942.750 C 348.297 936.495, 348.639 938.549, 352.691 946.048 C 363.270 965.626, 389.471 994, 396.971 994 C 399.250 994, 401 991.999, 401 989.395 C 401 988.182, 395.775 979.384, 389.389 969.845 C 362.526 929.716, 355.785 906.017, 358.946 862.824 C 360.024 848.101, 359.980 845.888, 358.540 842.440 C 356.363 837.232, 354.364 835.190, 348.807 832.504 L 344.114 830.236 346.307 833.201 M 492.500 838.882 C 484.612 840.507, 479.642 846.381, 478.745 855.135 C 478.119 861.253, 479.362 864.900, 483.305 868.508 C 485.165 870.210, 490.234 873, 491.467 873 C 491.671 873, 491.117 871.162, 490.235 868.916 C 488.871 865.444, 488.817 864.133, 489.875 860.179 C 491.340 854.699, 493.317 852.225, 497.718 850.362 C 502.105 848.505, 505.895 848.652, 510.199 850.847 L 513.821 852.693 512.161 849.103 C 509.332 842.987, 506.200 840.209, 500.838 839.059 C 498.123 838.476, 495.811 838.059, 495.701 838.132 C 495.590 838.204, 494.150 838.542, 492.500 838.882 M 452.522 892.500 C 458.870 903.431, 465.614 909.750, 477 915.435 C 486.148 920.002, 492.278 921.507, 501.500 921.451 C 508.252 921.410, 511.420 920.737, 521.807 917.134 C 538.259 911.428, 538.766 911.565, 549.186 924.500 C 555.200 931.965, 558.146 934.503, 564.640 937.816 C 569.368 940.229, 598.903 952.099, 613.500 957.454 C 619 959.472, 625.750 961.970, 628.500 963.005 C 643.150 968.521, 661.977 975.245, 673.500 979.077 C 684.450 982.719, 687.789 983.408, 694.673 983.450 C 703.775 983.506, 706.511 982.239, 710.752 976.007 C 716.983 966.852, 714.871 957.124, 705.607 952.306 C 702.765 950.827, 702.728 950.842, 703.497 953.151 C 705.668 959.672, 701.864 969.180, 695.873 972.202 C 690.058 975.136, 685.010 974.419, 665.183 967.842 C 654.973 964.455, 645.467 961.082, 644.059 960.348 C 642.652 959.613, 640.913 959.010, 640.195 959.006 C 639.477 959.003, 636.987 958.133, 634.660 957.073 C 632.334 956.013, 629.126 954.819, 627.532 954.419 C 625.938 954.019, 623.478 953.088, 622.067 952.352 C 620.655 951.615, 618.825 951.007, 618 951 C 617.175 950.993, 615.293 950.358, 613.817 949.588 C 612.342 948.818, 609.760 947.886, 608.079 947.517 C 606.398 947.148, 604.766 946.431, 604.452 945.923 C 604.139 945.415, 603.189 945, 602.342 945 C 601.495 945, 599.272 944.325, 597.401 943.500 C 589.281 939.919, 587.252 939.072, 583 937.489 C 577.262 935.353, 573.950 933.996, 571.764 932.883 C 570.809 932.397, 569.121 932, 568.014 932 C 566.906 932, 566 931.550, 566 931 C 566 930.450, 565.212 929.998, 564.250 929.996 C 558.533 929.982, 548.675 921.830, 540.500 910.355 C 533.907 901.101, 529.573 900.633, 512 907.277 C 499.284 912.085, 491.038 912.689, 481.933 909.477 C 479.632 908.664, 477.170 908, 476.464 908 C 473.619 908, 460.360 899.458, 455.723 894.638 C 452.126 890.898, 451.255 890.317, 452.522 892.500 M 305.497 970.750 C 312.601 983.780, 323.978 1000, 326.014 1000 C 327.544 1000, 326.525 998.125, 320.987 990.750 C 310.748 977.115, 308.559 973.997, 305.542 968.750 C 301.363 961.484, 301.327 963.102, 305.497 970.750" stroke="none" fill="#0a0d0b" fill-rule="evenodd"/><path d="M 650.001 0.750 C 650.002 1.163, 651.829 3.525, 654.062 6 C 669.398 23.002, 687.224 59.719, 695.066 90.460 C 700.951 113.524, 702.233 124.136, 702.550 152.381 C 702.804 175.028, 702.925 176.370, 704.893 178.338 C 706.448 179.892, 708.278 180.424, 712.189 180.456 C 720.089 180.522, 720.217 180.057, 719.632 153.500 C 719.126 130.515, 717.707 118.346, 713.395 100 C 706.157 69.210, 691.526 39.318, 671.545 14.500 C 667.560 9.550, 663.505 4.263, 662.535 2.750 C 660.968 0.309, 660.165 -0, 655.385 -0 C 652.423 -0, 650.001 0.337, 650.001 0.750 M 595.079 18.771 C 595.036 19.471, 597.545 22.621, 600.656 25.771 C 618.153 43.493, 629.506 61.987, 637.988 86.588 C 643.742 103.273, 646.100 117.764, 646.736 140.333 C 647.263 159.058, 647.281 159.180, 649.883 161.594 C 651.322 162.930, 654.441 164.765, 656.812 165.671 C 660.958 167.256, 661.203 167.242, 663.134 165.311 C 666.033 162.412, 666.949 157.127, 666.976 143.157 C 667.042 109.247, 650.383 69.633, 623.773 40.423 C 616.025 31.918, 599.872 18.800, 597.810 19.339 C 596.867 19.586, 595.885 19.273, 595.627 18.644 C 595.309 17.869, 595.132 17.910, 595.079 18.771 M 289.813 53.255 C 284.327 57.838, 281.767 65.806, 283.594 72.613 C 284.247 75.045, 289.940 78.107, 298.232 80.486 C 301.384 81.391, 304.223 82.552, 304.541 83.066 C 304.858 83.580, 305.936 84, 306.937 84 C 307.937 84, 309.315 84.675, 310 85.500 C 310.685 86.325, 312.091 87, 313.126 87 C 314.161 87, 316.686 87.900, 318.739 89 C 320.791 90.100, 322.971 91, 323.582 91 C 324.194 91, 325.732 91.900, 327 93 C 328.268 94.100, 330.301 95, 331.518 95 C 332.735 95, 334.874 95.900, 336.273 97 C 337.671 98.100, 339.730 99, 340.849 99 C 341.967 99, 343.153 99.438, 343.483 99.973 C 343.814 100.508, 345.865 101.425, 348.042 102.011 C 350.219 102.598, 352 103.510, 352 104.039 C 352 104.567, 353.039 105, 354.309 105 C 355.579 105, 357.491 105.661, 358.559 106.468 C 359.626 107.276, 361.232 107.951, 362.128 107.968 C 363.023 107.986, 364.315 108.675, 365 109.500 C 365.685 110.325, 367.229 111, 368.431 111 C 369.634 111, 371.491 111.661, 372.559 112.468 C 373.626 113.276, 375.255 113.951, 376.179 113.968 C 377.102 113.986, 378.477 114.620, 379.235 115.378 C 379.993 116.136, 382.019 117.065, 383.738 117.442 C 385.456 117.820, 387.398 118.775, 388.053 119.564 C 388.709 120.354, 390.215 121, 391.400 121 C 392.585 121, 394.443 121.608, 395.527 122.351 C 396.612 123.094, 398.738 124.002, 400.250 124.370 C 401.762 124.737, 403 125.480, 403 126.019 C 403 126.559, 403.864 127, 404.919 127 C 405.974 127, 408.112 127.636, 409.669 128.413 C 413.667 130.409, 420.655 133.349, 427.825 136.051 C 431.938 137.602, 438.272 143.748, 439.740 147.612 C 440.343 149.200, 441.089 154.932, 441.398 160.348 C 442.097 172.608, 445.129 179.601, 452.004 184.811 C 454.477 186.685, 457.760 189.182, 459.301 190.359 C 467.072 196.299, 471.812 209.852, 471.416 225 C 471.127 236.044, 470.048 257.994, 469.449 265 C 469.191 268.025, 468.794 273.200, 468.567 276.500 C 468.341 279.800, 467.427 288.273, 466.538 295.330 C 464.991 307.596, 464.045 315.164, 463.514 319.500 C 463.379 320.600, 463.003 322.625, 462.677 324 C 462.351 325.375, 460.932 332.413, 459.524 339.641 C 457.108 352.044, 451.106 373.431, 448.973 377.236 C 448.438 378.191, 448 379.591, 448 380.346 C 448 381.101, 446.650 384.248, 445 387.340 C 443.350 390.432, 442 393.577, 442 394.328 C 442 395.079, 441.107 396.723, 440.016 397.981 C 438.925 399.240, 437.485 401.783, 436.815 403.634 C 436.146 405.485, 435.291 407, 434.916 407 C 434.540 407, 433.969 407.788, 433.646 408.750 C 433.025 410.599, 430.900 414.158, 429.915 415 C 429.593 415.275, 428.918 416.239, 428.415 417.143 C 424.639 423.924, 402.029 446.238, 395.265 449.858 C 394.105 450.479, 392.539 451.552, 391.786 452.243 C 390.044 453.841, 387.188 455.676, 384 457.246 C 382.625 457.923, 380.905 459.044, 380.179 459.738 C 379.452 460.432, 378.163 461, 377.314 461 C 376.465 461, 373.685 462.062, 371.135 463.359 C 366.836 465.548, 364.612 466.544, 358.750 468.907 C 352.947 471.246, 347.643 473.077, 344.233 473.919 C 342.180 474.425, 336 475.965, 330.500 477.340 C 315.659 481.050, 300.846 483.752, 282.702 486.059 C 260.085 488.934, 261.029 488.866, 235.658 489.425 C 215.680 489.864, 212.968 489.744, 214.030 488.464 C 214.698 487.659, 215.688 487, 216.229 487 C 219.067 487, 234.618 472.523, 237.617 467.089 C 238.653 465.212, 240.712 461.612, 242.193 459.089 C 243.674 456.565, 246.291 451.800, 248.008 448.500 C 249.726 445.200, 253.239 438.527, 255.815 433.672 C 266.197 414.108, 287.350 371.280, 295.166 354 C 296.286 351.525, 297.606 348.719, 298.101 347.764 C 298.595 346.809, 299 343.607, 299 340.648 C 299 333.779, 297.015 331.177, 289.043 327.600 C 283.502 325.113, 282.670 324.990, 279.400 326.172 C 277.431 326.884, 275.340 328.365, 274.752 329.463 C 274.165 330.561, 273.080 332.063, 272.342 332.801 C 271.604 333.539, 271 334.717, 271 335.418 C 271 336.542, 270.067 337.907, 266.019 342.708 C 265.458 343.372, 265 344.385, 265 344.958 C 265 345.531, 264.580 346, 264.067 346 C 263.554 346, 262.874 346.821, 262.556 347.824 C 262.238 348.827, 261.184 350.514, 260.215 351.574 C 259.245 352.633, 257.113 355.637, 255.476 358.248 C 253.839 360.860, 252.162 362.997, 251.750 362.998 C 251.338 362.999, 251 363.482, 251 364.071 C 251 364.661, 250.437 365.770, 249.750 366.537 C 246.782 369.846, 246 370.977, 246 371.958 C 246 372.531, 245.550 373, 245 373 C 244.450 373, 244 373.675, 244 374.500 C 244 375.325, 243.652 376, 243.227 376 C 242.802 376, 241.607 377.575, 240.570 379.500 C 239.533 381.425, 238.306 383, 237.843 383 C 237.379 383, 237 383.675, 237 384.500 C 237 385.325, 236.580 386, 236.067 386 C 235.554 386, 234.882 386.787, 234.573 387.750 C 234.265 388.712, 232.854 390.843, 231.438 392.484 C 230.023 394.126, 227.912 397.163, 226.748 399.234 C 225.584 401.305, 224.265 403, 223.816 403 C 223.367 403, 223 403.675, 223 404.500 C 223 405.325, 222.550 406, 222 406 C 221.450 406, 221 406.675, 221 407.500 C 221 408.325, 220.550 409, 220 409 C 219.450 409, 219 409.675, 219 410.500 C 219 411.325, 218.652 412, 218.227 412 C 217.802 412, 216.607 413.575, 215.570 415.500 C 214.533 417.425, 213.306 419, 212.843 419 C 212.379 419, 212 419.675, 212 420.500 C 212 421.325, 211.645 422, 211.210 422 C 210.776 422, 209.106 424.250, 207.500 427 C 205.894 429.750, 204.224 432, 203.790 432 C 203.355 432, 203 432.675, 203 433.500 C 203 434.325, 202.550 435, 202 435 C 201.450 435, 201 435.675, 201 436.500 C 201 437.325, 200.652 438, 200.227 438 C 199.802 438, 198.607 439.575, 197.570 441.500 C 196.533 443.425, 195.306 445, 194.843 445 C 194.379 445, 194 445.675, 194 446.500 C 194 447.325, 193.550 448, 193 448 C 192.450 448, 192 448.469, 192 449.042 C 192 449.615, 191.437 450.764, 190.750 451.594 C 182.697 461.322, 178.128 463.733, 170.175 462.451 C 162.490 461.213, 150.863 461.083, 145 462.171 C 140.066 463.086, 124.348 470.002, 123.025 471.839 C 122.736 472.240, 121.288 473.498, 119.806 474.634 C 115.534 477.910, 110.644 484.954, 107.750 492 C 105.632 497.158, 104.981 500.668, 104.598 509 C 103.820 525.944, 101.595 534.855, 94.659 548.815 C 92.387 553.388, 89.734 557.982, 88.764 559.023 C 87.794 560.064, 87 561.179, 87 561.500 C 87 561.822, 86.438 562.756, 85.750 563.577 C 82.909 566.969, 82.390 567.661, 79.999 571.243 C 78.624 573.302, 77.162 574.989, 76.750 574.993 C 76.338 574.997, 76 575.469, 76 576.042 C 76 576.615, 75.100 578.049, 74.001 579.230 C 72.901 580.410, 71.441 582.641, 70.757 584.188 C 70.072 585.735, 69.224 587, 68.873 587 C 68.521 587, 67.969 587.788, 67.646 588.750 C 67.075 590.451, 65.010 593.990, 64 595 C 63.120 595.880, 43.419 634.921, 40.030 642.500 C 39.047 644.700, 37.017 649.200, 35.519 652.500 C 32.055 660.134, 29.490 665.878, 27.146 671.250 C 26.126 673.587, 24.363 677.525, 23.229 680 C 20.111 686.802, 19.022 691.120, 19.417 695.114 C 19.776 698.736, 22.517 704, 24.044 704 C 24.491 704, 25.469 704.563, 26.217 705.250 C 28.981 707.790, 32.072 709, 35.798 709 C 39.670 709, 40.869 708.007, 46 700.543 C 48.505 696.900, 54.836 687.795, 58.546 682.500 C 62.041 677.511, 65.647 672.328, 72.746 662.084 C 74.811 659.105, 76.950 655.955, 77.500 655.084 C 78.050 654.213, 79.892 651.700, 81.594 649.500 C 83.296 647.300, 85.889 643.700, 87.357 641.500 C 88.824 639.300, 91.482 635.446, 93.262 632.936 C 95.043 630.426, 99.093 624.576, 102.263 619.936 C 105.432 615.296, 110.060 608.575, 112.546 605 C 121.909 591.540, 124.531 587.696, 125.589 585.881 C 126.188 584.854, 127.425 583.188, 128.339 582.178 C 129.252 581.169, 130 580.027, 130 579.641 C 130 579.255, 131.642 577.490, 133.649 575.719 C 138.263 571.650, 143.089 570.692, 149 572.674 C 155.390 574.817, 170.240 574.809, 176.354 572.660 C 183.209 570.250, 189.212 565.841, 193.391 560.148 C 201.474 549.138, 211.229 544.221, 226 543.713 C 227.925 543.647, 234.225 543.944, 240 544.373 C 245.775 544.802, 253.200 545.322, 256.500 545.529 C 259.800 545.736, 264.863 546.151, 267.750 546.452 C 270.637 546.754, 275.137 547.212, 277.750 547.471 C 282.408 547.933, 289.538 548.843, 293.500 549.481 C 312.493 552.541, 310.967 552.247, 324 555.351 C 329.775 556.726, 336.975 558.391, 340 559.051 C 343.025 559.711, 346.850 560.816, 348.500 561.506 C 350.150 562.196, 353.975 563.521, 357 564.452 C 360.025 565.382, 363.400 566.502, 364.500 566.941 C 371.826 569.863, 377.872 572.861, 381.005 575.125 C 383.003 576.569, 385.619 578.062, 386.819 578.443 C 388.019 578.823, 389 579.554, 389 580.067 C 389 580.580, 389.675 581, 390.500 581 C 391.325 581, 392 581.450, 392 582 C 392 582.550, 392.482 583, 393.071 583 C 393.661 583, 394.731 583.563, 395.449 584.250 C 396.167 584.938, 397.823 586.175, 399.127 587 C 402.069 588.860, 419.777 606.564, 422.500 610.369 C 424.433 613.069, 426.867 616.200, 428.981 618.708 C 429.542 619.372, 430 620.385, 430 620.958 C 430 621.531, 430.348 622, 430.773 622 C 431.198 622, 432.431 623.688, 433.513 625.750 C 434.595 627.813, 435.741 629.725, 436.060 630 C 436.685 630.540, 446.738 651.204, 447.979 654.500 C 448.393 655.600, 449.210 657.625, 449.794 659 C 455.617 672.716, 463.997 710.221, 465.547 729.500 C 465.812 732.800, 466.477 740.002, 467.024 745.505 C 468.005 755.380, 468.462 761.906, 469.544 781.500 C 469.847 787, 470.145 792.175, 470.205 793 C 470.266 793.825, 470.244 796.862, 470.158 799.750 C 470.013 804.556, 469.800 805, 467.640 805 C 466.258 805, 464.497 803.931, 463.390 802.419 C 454.414 790.161, 450.417 787.031, 435.500 780.578 C 429.930 778.169, 426.510 776.736, 424.250 775.866 C 419.877 774.183, 416.480 772.756, 414.764 771.883 C 413.809 771.397, 412.459 770.997, 411.764 770.994 C 411.069 770.990, 409.345 770.385, 407.933 769.648 C 406.522 768.912, 404.110 767.993, 402.573 767.608 C 401.036 767.222, 397.916 766.089, 395.640 765.090 C 393.363 764.091, 389.475 762.476, 387 761.501 C 384.525 760.526, 381.082 759.114, 379.349 758.364 C 377.616 757.614, 375.679 757, 375.044 757 C 374.409 757, 372.002 756.143, 369.695 755.095 C 367.388 754.047, 362.800 752.418, 359.500 751.474 C 356.200 750.531, 353.050 749.409, 352.500 748.983 C 351.950 748.556, 349.475 747.661, 347 746.993 C 344.525 746.326, 341.600 745.381, 340.500 744.894 C 339.400 744.407, 333.775 742.434, 328 740.509 C 314.241 735.922, 306.563 735.696, 302.356 739.754 C 297.696 744.247, 294.469 752.035, 295.524 756.240 C 296.232 759.059, 305.608 765.504, 311.250 767.050 C 313.313 767.615, 315 768.457, 315 768.921 C 315 769.386, 317.525 770.961, 320.611 772.423 C 323.697 773.884, 326.839 775.696, 327.593 776.450 C 328.347 777.204, 331.109 778.608, 333.732 779.570 C 336.354 780.533, 338.957 781.865, 339.517 782.532 C 340.560 783.776, 346.129 786.777, 356.250 791.550 C 359.413 793.041, 362 794.600, 362 795.015 C 362 795.429, 364.459 796.766, 367.464 797.985 C 370.469 799.205, 373.900 801.046, 375.088 802.076 C 376.275 803.106, 379.656 804.850, 382.601 805.952 C 385.546 807.054, 388.795 808.795, 389.821 809.821 C 390.847 810.847, 394.007 812.521, 396.843 813.541 C 399.679 814.561, 402 815.775, 402 816.239 C 402 816.704, 405.028 818.442, 408.728 820.103 C 412.429 821.763, 415.692 823.485, 415.978 823.930 C 416.774 825.162, 426.727 830, 428.467 830 C 429.310 830, 430 830.406, 430 830.901 C 430 831.397, 431.620 832.758, 433.600 833.927 C 435.580 835.095, 437.433 836.939, 437.717 838.025 C 438.001 839.111, 438.575 840, 438.992 840 C 440.321 840, 441.130 846.153, 441.460 858.782 C 441.773 870.762, 441.879 871.268, 445.782 879.401 C 451.001 890.279, 458.245 898.300, 467.770 903.750 C 471.855 906.087, 475.772 908, 476.473 908 C 477.175 908, 479.632 908.664, 481.933 909.477 C 491.038 912.689, 499.284 912.085, 512 907.277 C 529.573 900.633, 533.907 901.101, 540.500 910.355 C 548.675 921.830, 558.533 929.982, 564.250 929.996 C 565.212 929.998, 566 930.450, 566 931 C 566 931.550, 566.906 932, 568.014 932 C 569.121 932, 570.809 932.397, 571.764 932.883 C 573.950 933.996, 577.262 935.353, 583 937.489 C 587.425 939.136, 589.901 940.167, 597.151 943.381 C 599.159 944.272, 601.495 945, 602.342 945 C 603.189 945, 604.139 945.415, 604.452 945.923 C 604.766 946.431, 606.398 947.148, 608.079 947.517 C 609.760 947.886, 612.342 948.818, 613.817 949.588 C 615.293 950.358, 617.175 950.993, 618 951 C 618.825 951.007, 620.655 951.615, 622.067 952.352 C 623.478 953.088, 625.938 954.019, 627.532 954.419 C 629.126 954.819, 632.334 956.013, 634.660 957.073 C 636.987 958.133, 639.477 959.003, 640.195 959.006 C 640.913 959.010, 642.652 959.613, 644.059 960.348 C 650.270 963.589, 683.983 973.997, 688.124 973.952 C 694.139 973.886, 698.821 971.270, 701.459 966.500 C 704.710 960.623, 705.182 957.680, 703.514 953.688 C 702.354 950.911, 700.828 949.610, 696.303 947.538 C 693.146 946.093, 690.324 944.533, 690.031 944.072 C 689.739 943.610, 686.575 941.803, 683 940.055 C 673.901 935.607, 668.191 932.579, 666.202 931.147 C 663.919 929.504, 654.968 924.753, 647.022 920.966 C 643.458 919.268, 640.293 917.474, 639.988 916.980 C 639.682 916.485, 636.835 914.933, 633.661 913.529 C 630.488 912.125, 627.353 910.524, 626.695 909.970 C 625.463 908.932, 618.696 905.348, 606.500 899.275 C 602.650 897.358, 599.275 895.431, 599 894.993 C 598.725 894.555, 594.675 892.297, 590 889.975 C 585.325 887.654, 578.410 884.215, 574.634 882.333 C 570.858 880.451, 567.113 878.256, 566.313 877.455 C 565.512 876.655, 564.251 876, 563.510 876 C 561.153 876, 554.109 868.862, 552.925 865.272 C 552.212 863.112, 552.029 859.123, 552.438 854.656 C 553.327 844.952, 550.357 829.630, 547.077 827 C 546.734 826.725, 545.650 825.238, 544.669 823.696 C 543.687 822.154, 542.122 820.602, 541.192 820.247 C 539.007 819.413, 537.715 818.364, 532.882 813.500 C 526.611 807.189, 526 806.423, 526 804.866 C 526 804.060, 525.627 802.972, 525.171 802.450 C 523.349 800.364, 521.766 787.744, 522.440 780.680 C 522.817 776.731, 523.329 771.250, 523.578 768.500 C 523.827 765.750, 524.266 761.475, 524.553 759 C 524.840 756.525, 525.285 752.025, 525.542 749 C 525.990 743.735, 526.175 742.210, 527.609 732 C 527.957 729.525, 528.331 726.600, 528.441 725.500 C 528.550 724.400, 528.945 721.925, 529.318 720 C 529.690 718.075, 530.242 714.475, 530.543 712 C 531.112 707.324, 531.216 706.750, 532.990 698.500 C 533.582 695.750, 534.240 692.375, 534.453 691 C 535.251 685.849, 542.766 659.841, 545.072 654.250 C 545.582 653.013, 546.401 650.987, 546.892 649.750 C 548.433 645.863, 555.897 630.588, 557.228 628.596 C 570.491 608.749, 570.562 608.657, 579.738 599.625 C 587.341 592.141, 597.460 584.008, 603.762 580.316 C 607.713 578.001, 625.110 569.336, 628.500 567.995 C 629.600 567.560, 632.075 566.539, 634 565.726 C 635.925 564.914, 639.975 563.527, 643 562.644 C 669.710 554.851, 675.278 553.425, 684.921 551.909 C 688.539 551.340, 692.400 550.713, 693.500 550.517 C 698.397 549.641, 705.444 548.780, 719 547.403 C 721.475 547.152, 736.325 546.701, 752 546.402 L 780.500 545.858 776 548.900 C 767.745 554.480, 766.524 555.447, 762.500 559.596 C 757.432 564.821, 756.265 566.323, 754.835 569.462 C 754.199 570.858, 753.336 572, 752.917 572 C 752.498 572, 751.635 573.575, 751 575.500 C 750.365 577.425, 749.474 579, 749.020 579 C 748.567 579, 747.747 580.287, 747.199 581.860 C 746.650 583.434, 744.924 586.696, 743.362 589.110 C 741.801 591.525, 739.952 594.625, 739.253 596 C 738.555 597.375, 736.881 600.300, 735.534 602.500 C 734.187 604.700, 732.138 608.516, 730.980 610.980 C 729.821 613.444, 728.496 615.694, 728.034 615.980 C 727.573 616.266, 726.006 618.975, 724.554 622 C 723.101 625.025, 720.085 630.875, 717.851 635 C 715.618 639.125, 708.612 652.841, 702.283 665.479 C 691.214 687.583, 690.798 688.645, 691.355 693.353 C 692.136 699.941, 697.727 705.537, 704.554 706.560 C 710.292 707.421, 713.114 706.037, 716.779 700.566 C 718.277 698.330, 724.340 690.103, 730.252 682.285 C 736.163 674.467, 741 667.713, 741 667.275 C 741 666.838, 742.147 665.243, 743.548 663.731 C 744.950 662.220, 751.676 653.449, 758.494 644.241 C 765.313 635.034, 773.166 624.498, 775.946 620.829 C 778.726 617.160, 781 613.898, 781 613.579 C 781 613.261, 781.787 612.179, 782.750 611.176 C 783.712 610.172, 790.013 601.857, 796.751 592.698 C 803.489 583.538, 810.219 575.247, 811.707 574.272 C 814.496 572.445, 817.102 572.332, 835.500 573.243 C 846.720 573.799, 863.007 569.344, 866.872 564.663 C 867.627 563.748, 868.688 563, 869.230 563 C 871.342 563, 880.874 552.592, 883.261 547.680 C 886.350 541.324, 888.445 533.601, 887.645 531.518 C 887.020 529.887, 890.413 510.936, 891.945 507.500 C 898.467 492.881, 901.188 488.357, 910.721 476.273 C 914.724 471.199, 918 466.586, 918 466.023 C 918 465.461, 918.387 465, 918.860 465 C 919.808 465, 935.843 441.587, 939.063 435.500 C 939.645 434.400, 941.331 431.361, 942.810 428.748 C 945.500 423.995, 968.950 377.147, 975.720 363 C 977.694 358.875, 979.695 354.709, 980.168 353.742 C 980.641 352.775, 981.228 350, 981.473 347.575 C 981.908 343.285, 980.887 341.001, 976.472 336.380 C 974.608 334.428, 969.189 332, 966.699 332 C 962.525 332, 958.453 333.963, 956.787 336.779 C 955.901 338.275, 954.349 340.471, 953.338 341.657 C 952.327 342.843, 950.825 344.797, 950 346 C 949.175 347.202, 947.488 349.382, 946.251 350.843 C 945.014 352.304, 944.002 353.769, 944.001 354.097 C 944.001 354.425, 943.213 355.621, 942.250 356.754 C 941.288 357.887, 939.825 359.797, 939 361 C 938.175 362.203, 936.825 364.003, 936 365 C 935.175 365.997, 933.825 367.797, 933 369 C 932.175 370.203, 930.825 372.003, 930 373 C 929.175 373.997, 927.825 375.811, 927 377.029 C 926.175 378.248, 924.938 379.833, 924.250 380.551 C 923.562 381.269, 923 382.353, 923 382.960 C 923 383.567, 922.325 384.322, 921.500 384.638 C 920.675 384.955, 920 385.855, 920 386.638 C 920 387.422, 919.325 388.322, 918.500 388.638 C 917.675 388.955, 916.993 389.728, 916.984 390.357 C 916.975 390.986, 915.738 392.917, 914.234 394.648 C 912.730 396.379, 910.825 398.797, 910 400.020 C 909.175 401.244, 908.049 402.752, 907.499 403.373 C 906.948 403.993, 905.373 406.184, 903.999 408.243 C 902.624 410.302, 901.163 411.989, 900.750 411.993 C 900.337 411.997, 899.993 412.563, 899.984 413.250 C 899.975 413.938, 898.738 415.917, 897.234 417.648 C 895.730 419.379, 893.825 421.784, 893 422.991 C 892.175 424.199, 890.712 426.113, 889.750 427.246 C 888.788 428.379, 887.999 429.575, 887.999 429.903 C 887.998 430.231, 886.986 431.696, 885.749 433.157 C 884.512 434.618, 882.825 436.798, 882 438 C 880.589 440.057, 878.339 442.957, 876.019 445.708 C 875.458 446.372, 875 447.192, 875 447.529 C 875 447.867, 874.437 448.731, 873.750 449.449 C 873.063 450.167, 871.825 451.754, 871 452.975 C 867.729 457.815, 861.954 462.919, 858.746 463.804 C 856.236 464.498, 853.482 464.260, 848.061 462.884 C 838.851 460.545, 821.374 460.727, 816 463.218 C 814.075 464.111, 811.487 465.132, 810.250 465.488 C 809.013 465.844, 808 466.554, 808 467.067 C 808 467.580, 807.425 468, 806.723 468 C 806.020 468, 803.987 469.332, 802.204 470.961 C 800.421 472.589, 798.408 474.277, 797.731 474.711 C 797.054 475.145, 794.408 477.993, 791.852 481.040 C 784.056 490.332, 778.185 492.152, 761 490.601 C 752.489 489.833, 746.762 489.341, 736 488.455 C 728.879 487.869, 723.517 487.395, 714.500 486.554 C 692.109 484.467, 650.181 475.321, 638.404 469.956 C 636.042 468.880, 633.672 468, 633.136 468 C 632.600 468, 630.888 467.370, 629.331 466.600 C 618.649 461.317, 608.788 456.346, 607.278 455.485 C 603.378 453.258, 596.481 448.456, 596.167 447.750 C 595.983 447.337, 595.346 447, 594.751 447 C 593.367 447, 592.668 446.368, 579.650 433.350 C 567.193 420.894, 566 419.604, 566 418.595 C 566 418.189, 565.438 417.230, 564.750 416.463 C 561.782 413.154, 561 412.023, 561 411.042 C 561 410.469, 560.585 410, 560.078 410 C 559.570 410, 558.648 408.465, 558.029 406.588 C 557.410 404.712, 556.274 402.935, 555.504 402.640 C 554.734 402.345, 553.633 400.351, 553.056 398.209 C 552.480 396.067, 551.106 393.275, 550.004 392.004 C 548.902 390.734, 548 389.268, 548 388.748 C 548 387.908, 546.759 384.818, 543.887 378.500 C 543.386 377.400, 542.366 374.250, 541.618 371.500 C 540.871 368.750, 539.040 362.225, 537.550 357 C 536.060 351.775, 534.667 346.326, 534.456 344.892 C 534.245 343.458, 533.555 340.083, 532.922 337.392 C 531.757 332.431, 531.365 330.287, 530.475 324 C 530.203 322.075, 529.795 319.375, 529.569 318 C 528.878 313.791, 527.916 306.733, 527.389 302 C 527.114 299.525, 526.724 296.150, 526.524 294.500 C 525.816 288.658, 525.019 279.629, 523.478 260 C 523.197 256.425, 522.689 242.404, 522.350 228.843 C 521.748 204.828, 521.787 204.108, 523.849 201.213 C 525.013 199.578, 527.211 197.994, 528.733 197.693 C 531.866 197.074, 536 199.253, 536 201.523 C 536 202.335, 536.450 203, 537 203 C 537.550 203, 538 203.628, 538 204.396 C 538 206.139, 548.038 215, 550.011 215 C 550.555 215, 551.005 215.338, 551.011 215.750 C 551.029 216.919, 557.684 219.728, 567 222.499 C 571.675 223.890, 578.200 225.872, 581.500 226.903 C 584.800 227.934, 589.525 229.338, 592 230.024 C 598.065 231.704, 602.705 233.059, 607.500 234.550 C 609.700 235.234, 613.525 236.342, 616 237.013 C 618.475 237.683, 621.625 238.619, 623 239.092 C 624.375 239.565, 627.300 240.385, 629.500 240.913 C 631.700 241.442, 637.100 242.867, 641.500 244.079 C 645.900 245.292, 650.279 246.249, 651.230 246.206 C 652.182 246.163, 653.209 246.529, 653.512 247.020 C 653.816 247.511, 654.679 247.677, 655.431 247.388 C 656.183 247.100, 657.083 247.325, 657.431 247.888 C 657.779 248.452, 658.679 248.677, 659.431 248.388 C 660.183 248.100, 661.099 248.352, 661.468 248.948 C 661.837 249.545, 662.524 249.794, 662.995 249.503 C 663.466 249.212, 665.798 249.623, 668.176 250.418 C 676.775 253.289, 685.564 255.175, 690.692 255.249 C 696.702 255.336, 702.768 251.923, 704.964 247.220 C 705.662 245.724, 706.631 243.719, 707.117 242.764 C 708.403 240.235, 708.197 234.636, 706.750 232.772 C 705.634 231.334, 703.453 230.220, 692.500 225.494 C 690.850 224.782, 687.700 223.419, 685.500 222.465 C 683.300 221.511, 680.150 220.193, 678.500 219.535 C 676.850 218.877, 673.925 217.631, 672 216.766 C 670.075 215.901, 666.475 214.299, 664 213.208 C 659.311 211.140, 650.016 207, 644 204.300 C 634.439 200.009, 626.825 196.724, 623 195.241 C 621.625 194.708, 618.250 193.271, 615.500 192.048 C 612.750 190.825, 609.150 189.249, 607.500 188.547 C 603.938 187.030, 597.854 184.395, 593 182.266 C 591.075 181.421, 588.150 180.140, 586.500 179.418 C 584.850 178.696, 580.940 176.957, 577.812 175.553 C 574.683 174.149, 571.448 173, 570.621 173 C 569.794 173, 568.840 172.550, 568.500 172 C 568.160 171.450, 567.009 171, 565.941 171 C 564.873 171, 563.988 170.662, 563.973 170.250 C 563.958 169.838, 562.216 168.433, 560.101 167.130 C 557.986 165.826, 555.506 163.186, 554.589 161.263 C 553.181 158.311, 550.702 144.408, 551.189 142.197 C 551.694 139.905, 549.371 130.687, 547.097 125.958 C 537.073 105.110, 518.440 93.615, 495.822 94.323 C 487.567 94.581, 485.988 95.038, 474.500 100.484 C 465.713 104.649, 459.633 106.376, 456.508 105.591 C 454.761 105.153, 450.137 101.359, 444.930 96.092 L 436.260 87.323 424.880 83.756 C 413.270 80.117, 401.665 76.703, 394.500 74.820 C 392.300 74.241, 389.375 73.422, 388 73 C 386.625 72.578, 383.475 71.678, 381 71 C 378.525 70.322, 375.375 69.416, 374 68.987 C 372.625 68.557, 369.025 67.529, 366 66.703 C 353.366 63.253, 348.713 61.960, 343.744 60.521 C 329.422 56.374, 303.912 51.012, 298.500 51.011 C 293.745 51.010, 291.942 51.476, 289.813 53.255 M 274.200 121.200 C 273.355 122.045, 273 127.743, 273.001 140.450 C 273.002 172.745, 276.104 194.516, 284.120 218.498 C 289.416 234.342, 300.240 257.883, 306.353 266.850 C 308.359 269.793, 310 272.386, 310 272.612 C 310 273.345, 324.293 292.399, 327.544 296 C 349.396 320.203, 350.211 321, 353.112 321 C 357.663 321, 356.846 317.456, 350.661 310.364 C 325.550 281.571, 306.662 246.385, 298.071 212.399 C 296.417 205.854, 294.351 196.042, 293.479 190.592 C 291.428 177.762, 289.911 150.970, 290.675 141.063 C 291.909 125.059, 289.504 120, 280.661 120 C 277.767 120, 274.860 120.540, 274.200 121.200 M 488 134.676 C 486.075 135.643, 483.917 137.124, 483.205 137.967 C 480.635 141.007, 478.223 147.730, 478.499 151.080 C 478.654 152.961, 478.830 155.285, 478.890 156.244 C 478.951 157.203, 480.962 159.979, 483.361 162.412 C 486.949 166.052, 488.588 166.954, 492.611 167.501 C 495.300 167.867, 497.950 168.235, 498.500 168.318 C 501.707 168.803, 511 162.653, 511 160.045 C 511 159.470, 511.357 159, 511.793 159 C 512.986 159, 515.059 150.347, 514.358 148.292 C 512.414 142.595, 508.837 136.315, 506.844 135.100 C 503.143 132.845, 492.138 132.597, 488 134.676 M 327.585 136.639 C 326.146 140.386, 325.699 165.514, 326.920 174.046 C 332.280 211.500, 353.571 249.499, 382.500 273.241 C 387.179 277.082, 393.717 280.950, 394.390 280.277 C 394.726 279.941, 395 280.192, 395 280.833 C 395 281.475, 395.479 282, 396.063 282 C 396.648 282, 394.360 278.910, 390.979 275.133 C 366.264 247.529, 351.075 215.329, 347.047 182.001 C 346.415 176.776, 345.996 165.574, 346.114 157.108 C 346.312 142.949, 346.176 141.604, 344.415 140.338 C 343.362 139.581, 341.609 138.212, 340.520 137.294 C 339.432 136.377, 336.237 135.435, 333.420 135.202 C 329.117 134.845, 328.185 135.074, 327.585 136.639 M 820 294.655 C 797.444 296.817, 781.261 299.964, 763.990 305.547 C 744.609 311.813, 721.788 322.201, 710.500 329.896 C 704.349 334.090, 693 344.665, 693 346.203 C 693 348.074, 696.076 348.083, 698.715 346.220 C 701.331 344.373, 707.236 341.104, 719.329 334.808 C 737.690 325.249, 762.828 317.025, 786.195 312.934 C 819.942 307.025, 853.602 308.709, 888.500 318.052 C 905.881 322.705, 911.870 321.760, 913.436 314.115 C 914.683 308.029, 911.935 304.504, 905.190 303.536 C 902.610 303.166, 898.328 302.233, 895.673 301.463 C 877.012 296.047, 840.114 292.728, 820 294.655 M 142.500 296.684 C 102.089 300.193, 63.656 315.182, 27.364 341.587 C 9.983 354.234, 13.069 355.752, 33.830 344.768 C 55.894 333.095, 65.982 328.420, 76.087 325.183 C 123.561 309.976, 163.173 308.182, 211.809 319.038 C 219.477 320.750, 226.192 321.739, 227.654 321.372 C 232.279 320.211, 235.863 310.479, 233.206 306.299 C 232.228 304.760, 205.380 299.485, 188.506 297.516 C 176.917 296.164, 153.388 295.738, 142.500 296.684 M 819 347.051 C 792.229 350.377, 761.763 361.283, 744.789 373.615 C 736.731 379.469, 729 387.074, 729 389.145 C 729 391.727, 732.212 391.523, 736.771 388.652 C 752.366 378.833, 762.733 374.097, 778.875 369.419 C 792.327 365.521, 804.802 363.903, 821.382 363.906 C 837.433 363.910, 847.726 365.273, 863.839 369.532 C 876.422 372.857, 877.300 372.771, 882.683 367.685 C 888.028 362.636, 888.734 358.833, 884.875 355.879 C 881.973 353.656, 870.296 349.337, 863.500 347.972 C 856.365 346.539, 827.868 345.949, 819 347.051 M 140.500 349.614 C 110.970 353.931, 87.008 364.188, 63.261 382.677 C 58.729 386.205, 54.551 389.971, 53.975 391.046 C 52.014 394.711, 56.950 393.246, 75.500 384.658 C 85.400 380.075, 97.100 375.134, 101.500 373.677 C 126.790 365.304, 160.709 364.440, 187 371.500 C 195.483 373.777, 200.300 373.460, 203.959 370.381 C 209.449 365.762, 211.327 360.197, 208.638 356.520 C 206.218 353.210, 184.770 349.965, 162.500 349.539 C 152.050 349.339, 142.150 349.373, 140.500 349.614 M 152.676 500.345 C 142.483 503.642, 138.276 514.517, 142.842 525.762 C 146.999 535.997, 165.396 537.472, 173.145 528.192 C 176.989 523.589, 176.915 511.518, 173.007 505.350 C 170.013 500.628, 159.671 498.081, 152.676 500.345 M 829.384 500.139 C 820.446 502.149, 814.885 512.072, 817.115 522.032 C 818.935 530.159, 828.280 535.695, 838.002 534.405 C 843.680 533.652, 847.698 530.394, 850.218 524.500 C 852.405 519.385, 852.532 518.376, 851.615 513.352 C 850.634 507.971, 845.740 502.513, 840.124 500.539 C 835.275 498.833, 835.205 498.831, 829.384 500.139 M 270 643.969 C 270 644.501, 269.401 644.707, 268.669 644.426 C 267.937 644.146, 259.724 647.651, 250.419 652.217 C 232.271 661.122, 219.704 665.610, 203 669.151 C 194.374 670.980, 189.377 671.371, 175 671.342 C 157.267 671.307, 157.721 671.364, 132 665.869 C 121.588 663.644, 114.216 667.708, 113.307 676.174 C 112.699 681.840, 114.310 683.856, 120 684.552 C 122.475 684.854, 129.225 685.864, 135 686.795 C 151.047 689.382, 178.215 689.096, 192.763 686.187 C 212.976 682.145, 230.884 674.552, 249 662.343 C 264.328 652.013, 274.605 643, 271.057 643 C 270.476 643, 270 643.436, 270 643.969 M 938 646.969 C 938 647.501, 937.430 647.719, 936.734 647.451 C 936.038 647.184, 929.625 649.501, 922.484 652.599 C 892.114 665.777, 876.018 670, 856.165 670 C 842.536 670, 835.737 669.218, 811.054 664.811 C 795.101 661.963, 793.269 661.816, 789.645 663.098 C 787.465 663.869, 784.820 665.664, 783.767 667.087 C 781.230 670.516, 780.328 677.197, 782.194 678.746 C 782.965 679.386, 790.549 681.388, 799.048 683.196 C 813.707 686.314, 815.577 686.483, 835.500 686.491 C 852.007 686.498, 858.318 686.112, 865 684.688 C 878.347 681.842, 893.570 676.388, 905 670.358 C 923.323 660.692, 943.835 646, 939.008 646 C 938.454 646, 938 646.436, 938 646.969 M 637 685.059 C 637 685.577, 637.477 686, 638.059 686 C 638.641 686, 638.858 686.421, 638.540 686.936 C 638.221 687.451, 642.006 692.738, 646.950 698.686 C 665.560 721.074, 673.144 733.290, 684.650 759.413 C 699.991 794.244, 707.215 835.797, 704.050 871 C 703.431 877.875, 702.657 887.796, 702.329 893.047 C 701.749 902.320, 701.800 902.638, 704.116 904.112 C 705.427 904.946, 708.606 905.745, 711.180 905.886 C 717.920 906.255, 718.547 904.823, 720.055 885.617 C 724.950 823.281, 709.645 767.960, 675.161 723.349 C 671.399 718.482, 662.298 708.200, 654.937 700.500 C 642.509 687.501, 637 682.758, 637 685.059 M 967.029 688.067 C 926.852 713.905, 874.607 727.547, 829.339 724.021 C 809.895 722.506, 787.733 718.576, 775.215 714.422 C 772.858 713.640, 768.450 713, 765.420 713 C 760.870 713, 759.472 713.437, 757.400 715.509 C 755.308 717.601, 754.942 718.800, 755.196 722.723 C 755.479 727.103, 755.741 727.511, 759 728.633 C 764.263 730.447, 791.021 735.830, 803.500 737.586 C 816.891 739.471, 848.863 739.747, 861.500 738.087 C 901.071 732.891, 934.141 719.661, 973.738 693.186 C 979.517 689.322, 982.631 686.298, 981.743 685.410 C 981.425 685.092, 979.441 684.623, 977.333 684.369 C 974.111 683.979, 972.469 684.569, 967.029 688.067 M 284.500 697.026 C 238.698 719.350, 196.963 728.200, 151.733 725.180 C 132.796 723.915, 116.880 721.340, 107.115 717.960 C 99.147 715.203, 93.501 715.717, 90.252 719.494 C 87.993 722.120, 87.193 728.183, 88.777 730.673 C 90.458 733.317, 123.797 739.648, 144.212 741.201 C 186.498 744.416, 227.618 735.215, 267 713.726 C 282.028 705.525, 297.500 695.457, 297.500 693.879 C 297.500 691.404, 294.587 692.110, 284.500 697.026 M 613 741.260 C 613 741.953, 614.013 743.654, 615.250 745.040 C 623.544 754.330, 635.861 778.140, 641.871 796.500 C 648.540 816.874, 650.185 833.241, 648.617 863.610 L 647.785 879.720 650.635 882.362 C 653.875 885.367, 658.892 887.296, 662.233 886.822 C 664.132 886.552, 664.790 885.363, 666.286 879.500 C 673.191 852.446, 665.784 810.949, 648.527 780 C 637.275 759.820, 613 733.350, 613 741.260 M 279.593 809.273 C 277.941 810.512, 277.496 813.164, 276.264 829.101 C 273.228 868.370, 276.518 898.425, 287.202 929 C 295.638 953.147, 305.800 971.438, 323.249 993.890 C 327.677 999.587, 328.272 1000, 332.058 1000 C 335.051 1000, 335.915 999.671, 335.347 998.750 C 334.923 998.063, 332.257 994.034, 329.422 989.797 C 323.354 980.728, 312.490 958.966, 307.004 944.887 C 300.376 927.879, 295.431 908.233, 292.937 889 C 291.107 874.885, 291.356 847.869, 293.460 832.308 C 295.382 818.098, 295.063 813.272, 292.021 810.519 C 289.409 808.155, 282.066 807.419, 279.593 809.273 M 332.159 827.881 C 327.872 830.598, 325.917 869.831, 329.281 885.628 C 332.978 902.993, 343.030 928.517, 351.265 941.454 C 357.803 951.724, 366.676 962.732, 375.081 971 C 383.229 979.015, 393 986.907, 393 985.474 C 393 985.116, 389.678 980.251, 385.618 974.662 C 354.271 931.509, 345.465 905.813, 347.536 863.543 C 348.836 837.010, 348.827 836.828, 346.048 832.773 C 342.932 828.227, 335.656 825.664, 332.159 827.881 M 492.500 838.882 C 484.612 840.507, 479.642 846.381, 478.745 855.135 C 478.115 861.290, 479.342 864.842, 483.419 868.664 C 488.048 873.004, 499.590 875.360, 504.182 872.903 C 507.804 870.964, 512.462 864.814, 513.834 860.157 C 515.069 855.966, 514.995 855.254, 512.834 850.565 C 509.337 842.978, 506.523 840.278, 500.838 839.059 C 498.123 838.476, 495.811 838.059, 495.701 838.132 C 495.590 838.204, 494.150 838.542, 492.500 838.882" stroke="none" fill="#19e791" fill-rule="evenodd"/></svg>